<svg width="128" height="128" xmlns="http://www.w3.org/2000/svg">

 <g>
  <title>Layer 1</title>
  <g stroke="null" id="svgg">
   <path stroke="null" fill-rule="evenodd" fill="#000000" d="m54.07637,41.54431c-0.97282,0.29102 -1.42769,1.01874 -1.52382,2.43652l-0.073,1.07721l-0.61045,0.04393c-0.98406,0.07135 -0.95069,1.03327 0.03568,1.03327l0.64646,0l0,3.0876l0,3.08793l0.57445,0l0.57445,0l0,-3.08067l0,-3.08067l0.81261,-0.04294c0.80931,-0.04294 0.81261,-0.04526 0.82583,-0.51003l0.01321,-0.46676l-0.82583,0l-0.82583,0l0,-0.98934c0,-1.34313 0.25898,-1.6761 1.28036,-1.64604c0.71682,0.02147 0.73036,0.01387 0.73036,-0.39838c0,-0.61607 -0.66727,-0.84135 -1.63448,-0.55165m-39.72856,0.4258c-0.48922,0.48922 -0.19192,1.29258 0.47799,1.29258c0.29862,0 0.8146,-0.50045 0.8146,-0.78982c0,-0.27847 -0.51168,-0.79015 -0.78982,-0.79015c-0.11859,0 -0.34487,0.12949 -0.50276,0.28739m-12.92618,5.24235l0,5.09833l0.57874,0l0.57874,0l-0.03997,-4.22328c-0.02213,-2.32256 0.00826,-4.19322 0.06739,-4.15655c0.05946,0.03667 0.10769,0.14931 0.10769,0.24973c0,0.64216 3.54742,8.05842 3.85463,8.05842c0.31447,0 1.95589,-3.38292 3.59136,-7.40073l0.38153,-0.93748l0,4.16911l0,4.16911l0.61243,0.04426l0.6121,0.04426l-0.03766,-5.07124l-0.03799,-5.07091l-0.65868,-0.04294c-0.41655,-0.02676 -0.7112,0.0261 -0.80072,0.14369c-0.12982,0.17111 -3.32412,7.28049 -3.56856,7.94215c-0.0991,0.26922 -0.11264,0.2646 -0.21372,-0.07168c-0.05913,-0.19754 -0.72177,-1.74877 -1.47262,-3.447c-0.75051,-1.69856 -1.50994,-3.42718 -1.68733,-3.84208l-0.32273,-0.75382l-0.77231,0l-0.77231,0l0,5.09866m56.19226,-4.02277c-0.45288,0.19655 -0.46676,0.22892 -0.46676,1.07126l0,0.86877l-0.57445,0c-0.5609,0 -0.57445,0.01189 -0.57445,0.50276c0,0.49054 0.01354,0.50276 0.57445,0.50276l0.57445,0l0,2.07547c0,3.68484 0.63688,4.69169 2.64859,4.18694c0.71318,-0.17904 0.52291,-1.04285 -0.21405,-0.97249c-1.07358,0.1024 -1.14195,-0.06904 -1.14195,-2.87058l0,-2.41934l0.86183,0l0.8615,0l0,-0.50276l0,-0.50276l-0.8615,0l-0.86183,0l0,-1.07721c0,-1.17631 -0.03072,-1.20868 -0.82583,-0.86282m4.29034,0.02345c-1.33421,0.67916 -1.3527,2.73415 -0.03105,3.4176c1.14724,0.59327 2.57823,-0.07565 2.82532,-1.32033c0.30787,-1.55289 -1.37847,-2.81838 -2.79427,-2.09727m1.71045,0.26757c0.23189,0.11958 0.51961,0.4073 0.63919,0.63886c0.89619,1.73292 -1.22388,3.33139 -2.59706,1.9582c-1.37319,-1.37319 0.22496,-3.49325 1.95787,-2.59706m-1.58427,1.43364c0,1.02634 0.03667,1.2209 0.2309,1.2209c0.1797,0 0.21835,-0.11231 0.17243,-0.50276c-0.04096,-0.35246 -0.00132,-0.50276 0.13279,-0.50276c0.10538,0 0.32505,0.22628 0.48823,0.50276c0.16318,0.27649 0.39342,0.50276 0.51201,0.50276c0.17441,0 0.15724,-0.09877 -0.09183,-0.52093c-0.27814,-0.47138 -0.2864,-0.54405 -0.08622,-0.76538c0.53249,-0.58832 0.1688,-1.1555 -0.74093,-1.1555l-0.61739,0l0,1.2209m1.11355,-0.76802c0.22496,0.22529 -0.03502,0.69634 -0.38417,0.69634c-0.18565,0 -0.28508,-0.13015 -0.32934,-0.43108c-0.06805,-0.46478 0.3561,-0.62234 0.71351,-0.26526m-31.51423,0.82847c-3.51043,0.58237 -3.95208,6.23235 -0.57279,7.33136c2.18349,0.70988 4.47499,-0.68147 4.77956,-2.90229c0.39706,-2.89766 -1.48583,-4.88031 -4.20676,-4.42908m7.70827,0.00066c-2.32685,0.47667 -2.78139,3.06712 -0.68279,3.89361c1.94301,0.76505 2.50292,1.28862 2.12766,1.98925c-0.35081,0.65538 -1.74646,0.80634 -2.84514,0.30754l-0.61045,-0.27715l0,0.63258c0,1.43562 3.47541,1.2721 4.49547,-0.21174c0.74688,-1.08646 0.1067,-2.19373 -1.76066,-3.04664c-1.29159,-0.58997 -1.58592,-0.83871 -1.58592,-1.34015c0,-0.87769 1.49243,-1.27805 2.76487,-0.74192l0.53844,0.22694l0,-0.57081c0,-0.46048 -0.06243,-0.59393 -0.32306,-0.69105c-0.52622,-0.19622 -1.57898,-0.28078 -2.11841,-0.17045m-24.59545,0.11529l-0.53844,0.05649l0,3.58178l0,3.58178l0.57445,0l0.57445,0l0,-3.66238c0,-2.01403 -0.01619,-3.65148 -0.03568,-3.63826c-0.01982,0.01354 -0.27847,0.04955 -0.57478,0.0806m4.56022,0.16351c-2.23766,1.01907 -2.79856,4.55989 -0.99694,6.29412c1.35436,1.30415 4.37193,1.23544 4.37193,-0.09943l0,-0.54339l-0.53282,0.27186c-1.81616,0.92592 -3.63067,-0.21306 -3.6604,-2.29712c-0.03336,-2.34502 1.84027,-3.65313 3.79847,-2.65223l0.39475,0.20183l0,-0.58204c0,-0.89388 -1.95919,-1.23874 -3.37499,-0.5936m7.18437,0.04228c-0.21703,0.17078 -0.51664,0.51003 -0.66529,0.75415l-0.27054,0.44363l-0.00066,-0.68246l-0.00033,-0.68213l-0.57445,0l-0.57445,0l0,3.5907l0,3.59037l0.55991,0l0.55991,0l0.05054,-2.40547c0.05715,-2.72952 0.19655,-3.17217 1.16376,-3.6964c0.4433,-0.24015 0.59493,-0.25898 0.96291,-0.11991l0.43703,0.16484l0,-0.6339l0,-0.6339l-0.62697,0c-0.42514,0 -0.75382,0.10009 -1.02138,0.31051m19.03102,-0.15063c-2.97595,1.18787 -2.824,6.35986 0.21108,7.18437c2.88445,0.78388 5.26019,-1.54265 4.67649,-4.57938c-0.42414,-2.20595 -2.76322,-3.45295 -4.88758,-2.60499m-11.93386,1.11652c1.48352,1.05673 1.46271,3.99271 -0.03502,4.90574c-2.17523,1.32661 -4.43965,-1.4049 -3.27919,-3.95571c0.56454,-1.24105 2.23403,-1.71937 3.31421,-0.95003m14.65843,-0.00727c1.35601,0.96589 1.3385,4.07034 -0.02775,4.9031c-2.05829,1.25493 -4.25631,-0.90478 -3.51505,-3.45394c0.46312,-1.59286 2.29117,-2.34072 3.5428,-1.44916m-19.34153,7.97088c-1.74745,1.60144 0.17904,4.3346 2.33412,3.3119c1.91724,-0.91006 1.19877,-3.79088 -0.94541,-3.79088c-0.78123,0 -0.917,0.04691 -1.38871,0.47898m-27.47957,14.54909l0,13.87885l4.84728,-0.08357c6.7404,-0.11628 8.68935,-0.5576 11.78488,-2.66709c7.78028,-5.30214 7.45028,-19.3891 -0.54637,-23.32103c-2.79229,-1.37286 -4.92622,-1.68634 -11.48395,-1.68634l-4.60184,0l0,13.87918m100.39185,-13.80023c0,0.04327 1.88024,3.11601 4.17802,6.8286c2.29778,3.71226 4.14796,6.82761 4.1113,6.92307c-0.03634,0.09514 -2.07811,3.20553 -4.53676,6.91151c-2.45865,3.70631 -4.47037,6.79226 -4.47037,6.85767c0,0.06574 0.86481,0.11925 1.92187,0.11925l1.9222,0l0.49715,-0.82583c0.27318,-0.4542 1.6837,-2.73217 3.13418,-5.06265c1.45081,-2.33015 2.87784,-4.6874 3.17151,-5.23806c0.51532,-0.96622 0.53745,-0.98703 0.63622,-0.59427c0.0915,0.36469 5.95256,10.28353 6.68094,11.3059l0.29532,0.4149l1.85745,0c1.09934,0 1.85712,-0.05649 1.85712,-0.13874c0,-0.07631 -1.94367,-3.21643 -4.31941,-6.97791c-2.37541,-3.76148 -4.28736,-6.92175 -4.24839,-7.02316c0.03865,-0.10141 0.58303,-0.98439 1.20934,-1.9625c1.02601,-1.6021 6.02854,-9.4914 6.97923,-11.00629l0.38285,-0.61045l-1.85811,0l-1.85844,0l-2.04277,3.33931c-1.12379,1.83664 -2.38928,3.90517 -2.81277,4.59688c-0.42348,0.69171 -1.08745,1.8112 -1.47526,2.48772l-0.70526,1.23015l-0.27847,-0.62069c-0.22165,-0.49484 -4.28968,-7.58473 -5.97998,-10.42293l-0.36369,-0.61045l-1.94235,0c-1.06829,0 -1.94268,0.03568 -1.94268,0.07895m22.9025,0.21604c-1.48219,0.43604 -1.80559,2.44115 -0.55264,3.42652c0.52985,0.41688 1.73523,0.41688 2.26508,0c1.7088,-1.34412 0.36303,-4.03697 -1.71244,-3.42652m1.37451,0.35378c1.1588,0.59955 1.12478,2.43421 -0.05616,2.99445c-1.53274,0.72739 -2.96439,-0.82351 -2.17292,-2.35394c0.40499,-0.78288 1.40027,-1.06895 2.22907,-0.64051m-1.5846,1.43397c0,0.98934 0.04096,1.22057 0.21538,1.22057c0.15063,0 0.21538,-0.15162 0.21538,-0.50243c0,-0.27649 0.06706,-0.50276 0.14865,-0.50276c0.08159,0 0.28177,0.22628 0.44496,0.50276c0.16318,0.27649 0.39375,0.50243 0.51201,0.50243c0.17408,0 0.15592,-0.10108 -0.0958,-0.52721c-0.2755,-0.46709 -0.28508,-0.54207 -0.08589,-0.65339c0.68841,-0.3855 0.10339,-1.26087 -0.84267,-1.26087l-0.51201,0l0,1.2209m1.05772,-0.75018c0.33892,0.24775 0.15922,0.67817 -0.28309,0.67817c-0.28607,0 -0.34387,-0.07201 -0.34387,-0.43075c0,-0.46643 0.21273,-0.55033 0.62697,-0.24742m-32.69053,1.23808l-1.54397,0.50772l0,2.41042l0,2.41042l-1.72334,0l-1.72334,0l0,1.3646l0,1.36427l1.72334,0l1.72334,0l0,6.39884c0,8.03728 0.15228,8.85881 1.87066,10.10383c1.29258,0.93649 3.9164,1.23742 5.52611,0.6339l0.71814,-0.26922l0.04129,-1.3418c0.03865,-1.24237 0.02246,-1.33388 -0.21538,-1.23313c-2.0682,0.87472 -3.63331,0.56321 -4.35013,-0.86613l-0.35907,-0.7155l-0.04294,-6.35557l-0.04261,-6.35524l2.52009,0l2.52042,0l0,-1.36427l0,-1.3646l-2.51051,0l-2.51051,0l-0.03865,-2.91781l-0.03898,-2.91814l-1.54397,0.50739m-82.47503,0.44396c6.88509,0.54141 10.15701,4.32998 9.79299,11.33927c-0.3627,6.98683 -4.09115,10.13918 -12.19846,10.31227l-3.411,0.07267l0,-10.8375c0,-5.96049 0.04294,-10.88044 0.09547,-10.93296c0.14006,-0.14006 3.72184,-0.11099 5.721,0.04625m46.63677,4.66196c-9.02431,2.18514 -9.46893,17.73216 -0.5761,20.14721c2.26045,0.61409 6.03349,0.20811 8.20872,-0.88297l1.16871,-0.58601l0.04096,-1.5552l0.04096,-1.55487l-0.47303,0.36072c-4.96652,3.78823 -11.51038,1.58427 -11.98606,-4.03664l-0.0882,-1.04153l6.98683,0l6.98683,0l-0.00066,-1.0412c-0.00264,-7.2283 -4.25565,-11.27518 -10.30897,-9.80951m21.44013,0.00462c-9.72957,2.1455 -10.66011,17.35922 -1.22685,20.0567c2.4603,0.7036 6.2601,0.30324 8.01118,-0.844c0.29532,-0.19357 0.54306,-3.05259 0.26426,-3.05259c-0.03336,0 -0.53448,0.25535 -1.11322,0.56751c-5.36094,2.88973 -10.37933,-0.23123 -10.37933,-6.45599c0,-6.42262 5.39562,-9.792 10.79819,-6.74304l0.75514,0.42613l0,-1.63316l0,-1.63349l-0.61045,-0.23057c-1.76727,-0.6676 -4.63124,-0.8691 -6.49893,-0.45751m-33.43543,0.13841c-1.30811,0.46643 -2.41208,1.56081 -3.19562,3.16754l-0.49054,1.00553l-0.00231,-2.04673l-0.00231,-2.04673l-1.57997,0l-1.57964,0l0,9.90993l0,9.90993l1.56775,0l1.56775,0l0.06243,-6.06785c0.07499,-7.29305 0.2352,-8.13275 1.87925,-9.85014c1.18556,-1.23808 3.31817,-1.69129 4.67517,-0.9933c0.26889,0.13808 0.51135,0.25138 0.53844,0.25138c0.28078,0 0.01354,-3.27952 -0.27318,-3.35649c-0.58436,-0.15658 -2.61027,-0.08192 -3.16721,0.11694m-16.39895,9.95386l0.00231,9.87392l1.57733,0l1.57766,0l0.037,-9.87392l0.03667,-9.87425l-1.61664,0l-1.61664,0l0.00231,9.87425m31.27771,-7.57284c2.2261,0.32174 3.58211,1.7828 3.99932,4.30917c0.24544,1.48517 0.71781,1.36063 -5.16043,1.3603c-5.79466,-0.00033 -5.41611,0.06408 -5.18851,-0.88c0.66859,-2.77478 2.61027,-4.57706 5.30181,-4.9216c0.03964,-0.00495 0.51102,0.0545 1.04781,0.13213" id="path0"/>
  </g>
 </g>
</svg>