<svg id="svg" xmlns="http://www.w3.org/2000/svg" xmlns:xlink="http://www.w3.org/1999/xlink" width="400" height="164.78260869565216" viewBox="0, 0, 400,164.78260869565216"><g id="svgg"><path id="path0" d="M174.617 24.798 C 171.672 25.679,170.295 27.882,170.004 32.174 L 169.783 35.435 167.935 35.568 C 164.956 35.784,165.057 38.696,168.043 38.696 L 170.000 38.696 170.000 48.043 L 170.000 57.391 171.739 57.391 L 173.478 57.391 173.478 48.065 L 173.478 38.739 175.938 38.609 C 178.388 38.479,178.398 38.472,178.438 37.065 L 178.478 35.652 175.978 35.652 L 173.478 35.652 173.478 32.657 C 173.478 28.591,174.262 27.583,177.354 27.674 C 179.524 27.739,179.565 27.716,179.565 26.468 C 179.565 24.603,177.545 23.921,174.617 24.798 M54.348 26.087 C 52.867 27.568,53.767 30.000,55.795 30.000 C 56.699 30.000,58.261 28.485,58.261 27.609 C 58.261 26.766,56.712 25.217,55.870 25.217 C 55.511 25.217,54.826 25.609,54.348 26.087 M15.217 41.957 L 15.217 57.391 16.969 57.391 L 18.721 57.391 18.600 44.606 C 18.533 37.575,18.625 31.912,18.804 32.023 C 18.984 32.134,19.130 32.475,19.130 32.779 C 19.130 34.723,29.869 57.174,30.799 57.174 C 31.751 57.174,36.720 46.933,41.671 34.770 L 42.826 31.932 42.826 44.553 L 42.826 57.174 44.680 57.308 L 46.533 57.442 46.419 42.090 L 46.304 26.739 44.310 26.609 C 43.049 26.528,42.157 26.688,41.886 27.044 C 41.493 27.562,31.823 49.084,31.083 51.087 C 30.783 51.902,30.742 51.888,30.436 50.870 C 30.257 50.272,28.251 45.576,25.978 40.435 C 23.706 35.293,21.407 30.060,20.870 28.804 L 19.893 26.522 17.555 26.522 L 15.217 26.522 15.217 41.957 M185.326 29.779 C 183.955 30.374,183.913 30.472,183.913 33.022 L 183.913 35.652 182.174 35.652 C 180.476 35.652,180.435 35.688,180.435 37.174 C 180.435 38.659,180.476 38.696,182.174 38.696 L 183.913 38.696 183.913 44.979 C 183.913 56.134,185.841 59.182,191.931 57.654 C 194.090 57.112,193.514 54.497,191.283 54.710 C 188.033 55.020,187.826 54.501,187.826 46.020 L 187.826 38.696 190.435 38.696 L 193.043 38.696 193.043 37.174 L 193.043 35.652 190.435 35.652 L 187.826 35.652 187.826 32.391 C 187.826 28.830,187.733 28.732,185.326 29.779 M198.314 29.850 C 194.275 31.906,194.219 38.127,198.220 40.196 C 201.693 41.992,206.025 39.967,206.773 36.199 C 207.705 31.498,202.600 27.667,198.314 29.850 M203.492 30.660 C 204.194 31.022,205.065 31.893,205.427 32.594 C 208.140 37.840,201.722 42.679,197.565 38.522 C 193.408 34.365,198.246 27.947,203.492 30.660 M198.696 35.000 C 198.696 38.107,198.807 38.696,199.395 38.696 C 199.939 38.696,200.056 38.356,199.917 37.174 C 199.793 36.107,199.913 35.652,200.319 35.652 C 200.638 35.652,201.303 36.337,201.797 37.174 C 202.291 38.011,202.988 38.696,203.347 38.696 C 203.875 38.696,203.823 38.397,203.069 37.119 C 202.227 35.692,202.202 35.472,202.808 34.802 C 204.420 33.021,203.319 31.304,200.565 31.304 L 198.696 31.304 198.696 35.000 M202.067 32.675 C 202.748 33.357,201.961 34.783,200.904 34.783 C 200.342 34.783,200.041 34.389,199.907 33.478 C 199.701 32.071,200.985 31.594,202.067 32.675 M106.665 35.183 C 96.038 36.946,94.701 54.050,104.931 57.377 C 111.541 59.526,118.478 55.314,119.400 48.591 C 120.602 39.819,114.902 33.817,106.665 35.183 M130.000 35.185 C 122.956 36.628,121.580 44.470,127.933 46.972 C 133.815 49.288,135.510 50.873,134.374 52.994 C 133.312 54.978,129.087 55.435,125.761 53.925 L 123.913 53.086 123.913 55.001 C 123.913 59.347,134.434 58.852,137.522 54.360 C 139.783 51.071,137.845 47.719,132.192 45.137 C 128.282 43.351,127.391 42.598,127.391 41.080 C 127.391 38.423,131.909 37.211,135.761 38.834 L 137.391 39.521 137.391 37.793 C 137.391 36.399,137.202 35.995,136.413 35.701 C 134.820 35.107,131.633 34.851,130.000 35.185 M55.543 35.534 L 53.913 35.705 53.913 46.548 L 53.913 57.391 55.652 57.391 L 57.391 57.391 57.391 46.304 C 57.391 40.207,57.342 35.250,57.283 35.290 C 57.223 35.331,56.440 35.440,55.543 35.534 M69.348 36.029 C 62.574 39.114,60.876 49.833,66.330 55.083 C 70.430 59.031,79.565 58.823,79.565 54.782 L 79.565 53.137 77.952 53.960 C 72.454 56.763,66.961 53.315,66.871 47.006 C 66.770 39.907,72.442 35.947,78.370 38.977 L 79.565 39.588 79.565 37.826 C 79.565 35.120,73.634 34.076,69.348 36.029 M91.097 36.157 C 90.440 36.674,89.533 37.701,89.083 38.440 L 88.264 39.783 88.262 37.717 L 88.261 35.652 86.522 35.652 L 84.783 35.652 84.783 46.522 L 84.783 57.391 86.478 57.391 L 88.173 57.391 88.326 50.109 C 88.499 41.846,88.921 40.506,91.849 38.919 C 93.191 38.192,93.650 38.135,94.764 38.556 L 96.087 39.055 96.087 37.136 L 96.087 35.217 94.189 35.217 C 92.902 35.217,91.907 35.520,91.097 36.157 M148.709 35.701 C 139.700 39.297,140.160 54.954,149.348 57.450 C 158.080 59.823,165.272 52.780,163.505 43.587 C 162.221 36.909,155.140 33.134,148.709 35.701 M112.582 39.081 C 117.073 42.280,117.010 51.168,112.476 53.932 C 105.891 57.948,99.036 49.679,102.549 41.957 C 104.258 38.200,109.312 36.752,112.582 39.081 M156.957 39.059 C 161.062 41.983,161.009 51.381,156.873 53.902 C 150.642 57.701,143.988 51.163,146.232 43.446 C 147.634 38.624,153.168 36.360,156.957 39.059 M98.405 63.189 C 93.115 68.037,98.947 76.311,105.471 73.215 C 111.275 70.460,109.100 61.739,102.609 61.739 C 100.244 61.739,99.833 61.881,98.405 63.189 M15.217 107.233 L 15.217 149.248 29.891 148.995 C 50.296 148.643,56.196 147.307,65.567 140.921 C 89.120 124.870,88.121 82.225,63.913 70.322 C 55.460 66.166,49.000 65.217,29.148 65.217 L 15.217 65.217 15.217 107.233 M319.130 65.456 C 319.130 65.587,324.822 74.889,331.778 86.128 C 338.734 97.366,344.335 106.797,344.224 107.086 C 344.114 107.374,337.933 116.790,330.490 128.009 C 323.047 139.229,316.957 148.571,316.957 148.769 C 316.957 148.968,319.575 149.130,322.775 149.130 L 328.594 149.130 330.099 146.630 C 330.926 145.255,335.196 138.359,339.587 131.304 C 343.979 124.250,348.299 117.114,349.188 115.447 C 350.748 112.522,350.815 112.459,351.114 113.648 C 351.391 114.752,369.134 144.779,371.339 147.874 L 372.233 149.130 377.856 149.130 C 381.184 149.130,383.478 148.959,383.478 148.710 C 383.478 148.479,377.594 138.973,370.402 127.586 C 363.211 116.199,357.423 106.632,357.541 106.325 C 357.658 106.018,359.306 103.345,361.202 100.384 C 364.308 95.534,379.452 71.651,382.330 67.065 L 383.489 65.217 377.864 65.217 L 372.238 65.217 366.054 75.326 C 362.652 80.886,358.821 87.148,357.539 89.242 C 356.257 91.336,354.247 94.725,353.073 96.773 L 350.938 100.497 350.095 98.618 C 349.424 97.120,337.109 75.657,331.992 67.065 L 330.891 65.217 325.011 65.217 C 321.777 65.217,319.130 65.325,319.130 65.456 M388.462 66.110 C 383.975 67.430,382.996 73.500,386.789 76.483 C 388.393 77.745,392.042 77.745,393.646 76.483 C 398.819 72.414,394.745 64.262,388.462 66.110 M392.623 67.181 C 396.131 68.996,396.028 74.550,392.453 76.246 C 387.813 78.448,383.479 73.753,385.875 69.120 C 387.101 66.750,390.114 65.884,392.623 67.181 M387.826 71.522 C 387.826 74.517,387.950 75.217,388.478 75.217 C 388.934 75.217,389.130 74.758,389.130 73.696 C 389.130 72.859,389.333 72.174,389.580 72.174 C 389.827 72.174,390.433 72.859,390.927 73.696 C 391.421 74.533,392.119 75.217,392.477 75.217 C 393.004 75.217,392.949 74.911,392.187 73.621 C 391.353 72.207,391.324 71.980,391.927 71.643 C 394.011 70.476,392.240 67.826,389.376 67.826 L 387.826 67.826 387.826 71.522 M391.028 69.251 C 392.054 70.001,391.510 71.304,390.171 71.304 C 389.305 71.304,389.130 71.086,389.130 70.000 C 389.130 68.588,389.774 68.334,391.028 69.251 M292.065 72.999 L 287.391 74.536 287.391 81.833 L 287.391 89.130 282.174 89.130 L 276.957 89.130 276.957 93.261 L 276.957 97.391 282.174 97.391 L 287.391 97.391 287.391 116.762 C 287.391 141.093,287.852 143.580,293.054 147.349 C 296.967 150.184,304.910 151.095,309.783 149.268 L 311.957 148.453 312.082 144.391 C 312.199 140.630,312.150 140.353,311.430 140.658 C 305.169 143.306,300.431 142.363,298.261 138.036 L 297.174 135.870 297.044 116.630 L 296.915 97.391 304.544 97.391 L 312.174 97.391 312.174 93.261 L 312.174 89.130 304.574 89.130 L 296.974 89.130 296.857 80.297 L 296.739 71.463 292.065 72.999 M42.391 74.343 C 63.234 75.982,73.139 87.451,72.037 108.670 C 70.939 129.821,59.652 139.364,35.109 139.888 L 24.783 140.108 24.783 107.300 C 24.783 89.256,24.913 74.362,25.072 74.203 C 25.496 73.779,36.339 73.867,42.391 74.343 M183.573 88.456 C 156.254 95.071,154.908 142.136,181.829 149.447 C 188.672 151.306,200.094 150.077,206.679 146.774 L 210.217 145.000 210.341 140.292 L 210.465 135.585 209.033 136.677 C 193.998 148.145,174.188 141.473,172.748 124.457 L 172.481 121.304 193.632 121.304 L 214.783 121.304 214.781 118.152 C 214.773 96.270,201.898 84.019,183.573 88.456 M248.478 88.470 C 219.024 94.965,216.207 141.021,244.764 149.187 C 252.212 151.317,263.715 150.105,269.016 146.632 C 269.910 146.046,270.660 137.391,269.816 137.391 C 269.715 137.391,268.198 138.164,266.446 139.109 C 250.217 147.857,235.025 138.409,235.025 119.565 C 235.025 100.122,251.359 89.922,267.714 99.152 L 270.000 100.442 270.000 95.498 L 270.000 90.553 268.152 89.855 C 262.802 87.834,254.132 87.224,248.478 88.470 M147.260 88.889 C 143.300 90.301,139.958 93.614,137.586 98.478 L 136.101 101.522 136.094 95.326 L 136.087 89.130 131.304 89.130 L 126.522 89.130 126.522 119.130 L 126.522 149.130 131.268 149.130 L 136.014 149.130 136.203 130.761 C 136.430 108.683,136.915 106.141,141.892 100.942 C 145.481 97.194,151.937 95.822,156.045 97.935 C 156.859 98.353,157.593 98.696,157.675 98.696 C 158.525 98.696,157.716 88.768,156.848 88.535 C 155.079 88.061,148.946 88.287,147.260 88.889 M97.616 119.022 L 97.623 148.913 102.398 148.913 L 107.174 148.913 107.286 119.022 L 107.397 89.130 102.503 89.130 L 97.609 89.130 97.616 119.022 M192.302 96.097 C 199.041 97.071,203.146 101.494,204.409 109.142 C 205.152 113.638,206.582 113.261,188.787 113.260 C 171.245 113.259,172.391 113.454,173.080 110.596 C 175.104 102.196,180.982 96.740,189.130 95.697 C 189.250 95.682,190.677 95.862,192.302 96.097 " stroke="none" fill="#000000" fill-rule="evenodd"></path></g></svg>